<?xml version="1.0" encoding="UTF-8" standalone="no"?>
<!-- Created with Inkscape (http://www.inkscape.org/) -->

<svg
   xmlns:dc="http://purl.org/dc/elements/1.1/"
   xmlns:cc="http://creativecommons.org/ns#"
   xmlns:rdf="http://www.w3.org/1999/02/22-rdf-syntax-ns#"
   xmlns:svg="http://www.w3.org/2000/svg"
   xmlns="http://www.w3.org/2000/svg"
   xmlns:sodipodi="http://sodipodi.sourceforge.net/DTD/sodipodi-0.dtd"
   xmlns:inkscape="http://www.inkscape.org/namespaces/inkscape"
   width="140.25"
   height="160.15625"
   id="svg3852"
   version="1.1"
   inkscape:version="0.48.4 r9939"
   sodipodi:docname="researchgate.svg">
  <defs
     id="defs3854" />
  <sodipodi:namedview
     id="base"
     pagecolor="#ffffff"
     bordercolor="#666666"
     borderopacity="1.0"
     inkscape:pageopacity="0.0"
     inkscape:pageshadow="2"
     inkscape:zoom="3.959798"
     inkscape:cx="80.616076"
     inkscape:cy="79.333174"
     inkscape:document-units="px"
     inkscape:current-layer="layer5"
     showgrid="false"
     showborder="true"
     showguides="true"
     inkscape:guide-bbox="true"
     inkscape:window-width="960"
     inkscape:window-height="1080"
     inkscape:window-x="0"
     inkscape:window-y="0"
     inkscape:window-maximized="0"
     fit-margin-top="10"
     fit-margin-left="0"
     fit-margin-right="0"
     fit-margin-bottom="10"
     borderlayer="false"
     inkscape:showpageshadow="false">
    <sodipodi:guide
       orientation="0,1"
       position="10.31459,25.270177"
       id="guide3877" />
    <sodipodi:guide
       orientation="0,1"
       position="-0.51693,150.16607"
       id="guide4396" />
    <sodipodi:guide
       orientation="1,0"
       position="-0.03948,82.343797"
       id="guide4398" />
    <sodipodi:guide
       orientation="0,1"
       position="0.12724,10.164607"
       id="guide4400" />
    <sodipodi:guide
       orientation="1,0"
       position="139.75335,10.002777"
       id="guide4402" />
  </sodipodi:namedview>
  <metadata
     id="metadata3857">
    <rdf:RDF>
      <cc:Work
         rdf:about="">
        <dc:format>image/svg+xml</dc:format>
        <dc:type
           rdf:resource="http://purl.org/dc/dcmitype/StillImage" />
        <dc:title />
      </cc:Work>
    </rdf:RDF>
  </metadata>
  <g
     inkscape:groupmode="layer"
     id="layer5"
     inkscape:label="Camada#1"
     style="display:inline"
     transform="translate(-698.8125,-686.65625)">
    <path
       style="fill:#000000;fill-opacity:1;stroke:none;display:inline"
       d="M 34.46875 10 C 17.134743 10 2.8404575 22.470263 0 38.96875 L 0 121.03125 C 2.8453205 137.5238 17.138938 150 34.46875 150 L 104.75 150 C 124.14 150 139.75 134.39 139.75 115 L 139.75 45 C 139.75 25.61 124.14 10 104.75 10 L 34.46875 10 z M 104.65625 18.84375 L 112.625 18.84375 C 119.32143 18.84375 125.125 28.84375 125.125 28.84375 C 125.125 28.84375 118.71894 31.6347 118.5625 31.6875 C 118.17682 31.81776 116.86608 25.15625 108.875 25.15625 C 99.14286 25.15625 97.875 35.09375 97.875 35.09375 L 97.875 53.03125 C 97.875 53.03125 99.29464 62.90625 108.3125 62.90625 C 117.33036 62.90625 118.875 55.25 118.875 55.25 L 118.875 48.125 L 109.59375 48.125 L 109.59375 41.96875 L 125.84375 41.96875 L 125.84375 52.21875 C 125.84375 52.21875 126.54465 68.90625 108.6875 68.90625 C 90.83034 68.90625 90.90625 54.28125 90.90625 54.28125 L 91 32.84375 C 92.31695 21.34821 104.65625 18.84375 104.65625 18.84375 z M 13.84375 48.90625 L 58.75 48.90625 C 79.71066 53.89388 79.5625 67.96875 79.5625 67.96875 C 79.5625 67.96875 79.68877 74.5817 79.5625 75.78125 C 79.75191 82.66292 70.60978 95.7998 59.6875 97.0625 C 62.46543 105.58566 83.79283 134.63272 91.625 135.53125 C 93.14571 135.53125 95.6875 135.71875 95.6875 135.71875 L 95.8125 140.78125 C 96.92546 140.77225 97.37541 140.81025 97.46875 140.84375 C 97.28375 140.92765 95.8125 141.0625 95.8125 141.0625 L 95.8125 140.78125 C 94.16097 140.79435 91.20226 140.85165 85.625 141.0625 C 67.25285 141.75698 47.8125 98.90625 47.8125 98.90625 L 35.8125 98.90625 L 35.8125 128.625 C 35.8125 136.01174 49.59375 134.875 49.59375 134.875 L 49.65625 139.875 L 13.90625 139.875 L 13.71875 139.9375 L 13.71875 134.90625 C 12.9127 134.88755 13.71875 134.875 13.71875 134.875 L 13.71875 134.90625 C 14.145 134.91625 14.1234 134.9375 16.875 134.9375 C 24.82995 134.9375 24.65625 129 24.65625 129 L 24.65625 61.15625 C 24.65625 52.19115 13.84375 53.5 13.84375 53.5 L 13.84375 48.90625 z M 49.65625 54.96875 C 34.44083 54.96875 35.6875 55.03125 35.6875 55.03125 L 35.6875 91.5625 L 35.71875 92 L 52.03125 92 C 52.03125 92 67.84375 87.64863 67.84375 75.96875 L 67.84375 69.84375 C 67.84375 69.84375 64.87168 54.96875 49.65625 54.96875 z "
       transform="translate(698.8125,686.65625)"
       id="rect4404" />
  </g>
  <g
     inkscape:groupmode="layer"
     id="layer4"
     inkscape:label="paths"
     style="display:none"
     transform="translate(-698.8125,-686.65625)">
    <path
       sodipodi:nodetypes="ccsccccccsccsscscc"
       inkscape:connector-curvature="0"
       id="path4389"
       d="m 789.82143,719.50504 -0.0893,21.42857 c 0,0 -0.0893,14.64286 17.76786,14.64286 17.85715,0 17.14286,-16.69643 17.14286,-16.69643 l 0,-10.26786 -16.25,0 0,6.16072 9.28571,0 0,7.14285 c 0,0 -1.54017,7.63393 -10.55803,7.63393 -9.01786,0 -10.42411,-9.86607 -10.42411,-9.86607 l 0,-17.94643 c 0,0 1.25,-9.91071 10.98214,-9.91071 7.99108,0 9.322,6.65825 9.70768,6.52799 0.15644,-0.0528 6.53784,-2.86588 6.53784,-2.86588 0,0 -5.79909,-10.0014 -12.49552,-10.0014 -6.69643,0 -7.94643,0 -7.94643,0 0,0 -12.34375,2.52232 -13.6607,14.01786 z"
       style="fill:none;stroke:#000000;stroke-width:1px;stroke-linecap:butt;stroke-linejoin:miter;stroke-opacity:1" />
    <path
       sodipodi:nodetypes="cccsccscccccccccscsccc"
       inkscape:connector-curvature="0"
       id="path4391"
       d="m 712.72576,826.52995 35.73414,0 -0.0631,-4.98763 c 0,0 -13.76333,1.13643 -13.76333,-6.25031 0,-8.52317 0,-29.73637 0,-29.73637 l 11.99556,0 c 0,0 19.44544,42.86835 37.81759,42.17387 18.37215,-0.69448 10.16466,0 10.16466,0 l -0.12627,-5.36643 c 0,0 -2.5199,-0.18941 -4.04061,-0.18941 -7.83217,-0.89853 -29.16815,-29.92577 -31.94608,-38.44893 10.92228,-1.2627 20.07679,-14.39467 19.88738,-21.27634 0.12627,-1.19955 0,-7.82868 0,-7.82868 0,0 0.12627,-14.079 -20.83439,-19.06663 -19.8974,0 -44.88866,0 -44.88866,0 l 0,4.60882 c 0,0 10.79601,-1.32582 10.79601,7.63928 0,8.9651 0,67.86962 0,67.86962 0,0 0.1894,5.93465 -7.76555,5.93465 -7.95495,0 -3.15673,-0.0631 -3.15673,-0.0631 l 0,5.05077 z"
       style="fill:none;stroke:#000000;stroke-width:1px;stroke-linecap:butt;stroke-linejoin:miter;stroke-opacity:1" />
    <path
       sodipodi:nodetypes="ccccscscc"
       inkscape:connector-curvature="0"
       id="path4424"
       d="m 734.50717,741.67714 0,36.5549 0.0116,0.42812 16.34029,0 c 0,0 15.78363,-4.34247 15.78363,-16.02235 0,-11.67989 0,-6.12405 0,-6.12405 0,0 -2.96732,-14.89975 -18.18275,-14.89975 -15.21542,0 -13.95273,0.0631 -13.95273,0.0631 z"
       style="fill:none;stroke:#000000;stroke-width:1px;stroke-linecap:butt;stroke-linejoin:miter;stroke-opacity:1;display:inline" />
  </g>
</svg>
