<?xml version="1.0" encoding="UTF-8" standalone="no"?>
<!-- Created with Inkscape (http://www.inkscape.org/) -->

<svg
   xmlns:dc="http://purl.org/dc/elements/1.1/"
   xmlns:cc="http://creativecommons.org/ns#"
   xmlns:rdf="http://www.w3.org/1999/02/22-rdf-syntax-ns#"
   xmlns:svg="http://www.w3.org/2000/svg"
   xmlns="http://www.w3.org/2000/svg"
   xmlns:sodipodi="http://sodipodi.sourceforge.net/DTD/sodipodi-0.dtd"
   xmlns:inkscape="http://www.inkscape.org/namespaces/inkscape"
   width="210"
   height="250"
   id="svg4454"
   version="1.1"
   inkscape:version="0.48.4 r9939"
   sodipodi:docname="speaker-deck.svg">
  <defs
     id="defs4456" />
  <sodipodi:namedview
     id="base"
     pagecolor="#ffffff"
     bordercolor="#666666"
     borderopacity="1.0"
     inkscape:pageopacity="0.0"
     inkscape:pageshadow="2"
     inkscape:zoom="2.8"
     inkscape:cx="121.68883"
     inkscape:cy="150.79913"
     inkscape:document-units="px"
     inkscape:current-layer="layer1"
     showgrid="false"
     fit-margin-top="20"
     fit-margin-left="0"
     fit-margin-right="0"
     fit-margin-bottom="20"
     showborder="true"
     showguides="true"
     inkscape:guide-bbox="true"
     inkscape:window-width="1920"
     inkscape:window-height="1080"
     inkscape:window-x="0"
     inkscape:window-y="0"
     inkscape:window-maximized="1"
     inkscape:snap-to-guides="false"
     inkscape:showpageshadow="false"
     inkscape:snap-page="true">
    <sodipodi:guide
       orientation="0,1"
       position="126.25,186.96429"
       id="guide4983" />
    <sodipodi:guide
       orientation="0,1"
       position="178.03571,96.07143"
       id="guide4985" />
    <sodipodi:guide
       orientation="1,0"
       position="30.178571,140"
       id="guide4987" />
    <sodipodi:guide
       orientation="1,0"
       position="206.96429,129.82143"
       id="guide4989" />
    <sodipodi:guide
       orientation="0,1"
       position="97.678572,193"
       id="guide5037" />
    <sodipodi:guide
       orientation="0,1"
       position="103.75,180"
       id="guide5039" />
    <sodipodi:guide
       orientation="1,0"
       position="23,196.25"
       id="guide5041" />
    <sodipodi:guide
       orientation="1,0"
       position="36,184.10714"
       id="guide5043" />
    <sodipodi:guide
       orientation="0,1"
       position="110.71429,89"
       id="guide5045" />
    <sodipodi:guide
       orientation="0,1"
       position="92.142857,102"
       id="guide5047" />
    <sodipodi:guide
       orientation="1,0"
       position="213,126.42857"
       id="guide5049" />
    <sodipodi:guide
       orientation="1,0"
       position="200,140.89286"
       id="guide5051" />
  </sodipodi:namedview>
  <metadata
     id="metadata4459">
    <rdf:RDF>
      <cc:Work
         rdf:about="">
        <dc:format>image/svg+xml</dc:format>
        <dc:type
           rdf:resource="http://purl.org/dc/dcmitype/StillImage" />
      </cc:Work>
    </rdf:RDF>
  </metadata>
  <g
     inkscape:label="Camada 1"
     inkscape:groupmode="layer"
     id="layer1"
     transform="translate(-231.42857,-419.50504)"
     style="display:inline">
    <path
       style="fill:#000000;fill-opacity:1;stroke:none"
       d="m 279.15584,439.50504 c -26.44091,0 -47.72727,21.28636 -47.72727,47.72727 l 0,114.54546 c 0,26.44091 21.28636,47.72727 47.72727,47.72727 l 114.54546,0 c 26.44091,0 47.72727,-21.28636 47.72727,-47.72727 l 0,-114.54546 c 0,-26.44091 -21.28636,-47.72727 -47.72727,-47.72727 l -114.54546,0 z m -10.11221,58.61506 131.25,0 c 9.69499,0 17.50994,7.81494 17.50994,17.50994 l 0,55.99006 c 0,9.69499 -7.81495,17.50994 -17.50994,17.50994 l -131.25,0 c -9.69501,0 -17.48012,-7.81495 -17.48012,-17.50994 l 0,-55.99006 c 0,-9.695 7.78511,-17.50994 17.48012,-17.50994 z m 2.625,11.39488 c -4.84751,0 -8.74006,3.89256 -8.74006,8.74006 l 0,50.74006 c 0,4.84749 3.89255,8.76988 8.74006,8.76988 l 126,0 c 4.84749,0 8.76988,-3.92239 8.76988,-8.76988 l 0,-50.74006 c 0,-4.8475 -3.92239,-8.74006 -8.76988,-8.74006 l -126,0 z m 51.6946,14.85512 0,37.73437 -33.34943,-18.0767 33.34943,-19.65767 z m 23.50568,0 33.37926,19.65767 -33.37926,18.0767 0,-37.73437 z"
       id="rect4473"
       inkscape:connector-curvature="0" />
  </g>
  <g
     inkscape:groupmode="layer"
     id="layer6"
     inkscape:label="paths"
     style="display:none"
     transform="translate(0,-10)">
    <rect
       transform="translate(-231.42857,-409.50504)"
       ry="20"
       rx="20"
       y="409.50504"
       x="231.42857"
       height="240"
       width="240"
       id="rect4998"
       style="fill:none;stroke:#000000;stroke-opacity:1" />
    <rect
       ry="15"
       rx="15"
       y="73.035713"
       x="30.178572"
       height="90.89286"
       width="176.78572"
       id="rect5000"
       style="fill:none;stroke:#a74d4d;stroke-width:1;stroke-miterlimit:3.79999995;stroke-opacity:1;stroke-dasharray:none" />
    <path
       inkscape:connector-curvature="0"
       id="path5002"
       d="m 105.05586,97.00028 0,43.12089 -38.133254,-20.645 z"
       style="fill:none;stroke:#000000;stroke-width:1px;stroke-linecap:butt;stroke-linejoin:miter;stroke-opacity:1" />
    <path
       transform="translate(-231.42857,-409.50504)"
       style="fill:none;stroke:#000000;stroke-width:1px;stroke-linecap:butt;stroke-linejoin:miter;stroke-opacity:1"
       d="m 363.37975,506.50532 0,43.12089 38.13325,-20.645 z"
       id="path5004"
       inkscape:connector-curvature="0" />
    <path
       id="path5078"
       d="m 44.6875,70.53125 c -9.418,0 -17,7.582 -17,17 l 0,61.90625 c 0,9.418 7.582,17 17,17 l 147.96875,0 c 9.418,0 17,-7.582 17,-17 l 0,-61.90625 c 0,-9.418 -7.582,-17 -17,-17 l -147.96875,0 z m 0.5,4.8125 146.59375,0 c 6.925,0 12.5,5.575 12.5,12.5 l 0,60.90625 c 0,6.925 -5.575,12.5 -12.5,12.5 l -146.59375,0 c -6.925,0 -12.5,-5.575 -12.5,-12.5 l 0,-60.90625 c 0,-6.925 5.575,-12.5 12.5,-12.5 z"
       style="fill:#000000;fill-opacity:1;stroke:none;display:inline"
       inkscape:connector-curvature="0" />
    <rect
       ry="20"
       rx="20"
       y="67"
       x="23"
       height="104"
       width="190"
       id="rect3773"
       style="fill:#ffffff;fill-opacity:1;stroke:none;display:inline" />
    <rect
       ry="10"
       rx="10"
       y="80"
       x="36"
       height="78"
       width="164"
       id="rect3775"
       style="fill:#350000;fill-opacity:1;stroke:none;display:inline" />
  </g>
</svg>
