<?xml version="1.0" encoding="UTF-8" standalone="no"?>
<!-- Created with Inkscape (http://www.inkscape.org/) -->

<svg
   xmlns:dc="http://purl.org/dc/elements/1.1/"
   xmlns:cc="http://creativecommons.org/ns#"
   xmlns:rdf="http://www.w3.org/1999/02/22-rdf-syntax-ns#"
   xmlns:svg="http://www.w3.org/2000/svg"
   xmlns="http://www.w3.org/2000/svg"
   xmlns:sodipodi="http://sodipodi.sourceforge.net/DTD/sodipodi-0.dtd"
   xmlns:inkscape="http://www.inkscape.org/namespaces/inkscape"
   width="744.09448819"
   height="1052.3622047"
   id="svg2"
   version="1.1"
   inkscape:version="0.48.4 r9939"
   sodipodi:docname="sugar-loaf.svg"
   inkscape:export-filename="/home/igorsantos/dev/konato/web/public/img/sugar-loaf-icon.png"
   inkscape:export-xdpi="17.33"
   inkscape:export-ydpi="17.33">
  <defs
     id="defs4">
    <clipPath
       clipPathUnits="userSpaceOnUse"
       id="clipPath3935">
      <rect
         style="fill:none;stroke:#000000;stroke-width:1;stroke-miterlimit:4;stroke-opacity:1;stroke-dasharray:none"
         id="rect3937"
         width="519.21838"
         height="238.39598"
         x="132.32999"
         y="73.524368" />
    </clipPath>
    <clipPath
       clipPathUnits="userSpaceOnUse"
       id="clipPath3941">
      <rect
         style="fill:none;stroke:#000000;stroke-width:1;stroke-miterlimit:4;stroke-opacity:1;stroke-dasharray:none"
         id="rect3943"
         width="587.90875"
         height="230.31477"
         x="98.994949"
         y="33.118263" />
    </clipPath>
  </defs>
  <sodipodi:namedview
     id="base"
     pagecolor="#ffffff"
     bordercolor="#666666"
     borderopacity="1.0"
     inkscape:pageopacity="0.0"
     inkscape:pageshadow="2"
     inkscape:zoom="0.98994949"
     inkscape:cx="353.60601"
     inkscape:cy="829.75126"
     inkscape:document-units="px"
     inkscape:current-layer="layer1"
     showgrid="false"
     showguides="true"
     inkscape:guide-bbox="true"
     inkscape:window-width="1024"
     inkscape:window-height="700"
     inkscape:window-x="0"
     inkscape:window-y="21"
     inkscape:window-maximized="0" />
  <metadata
     id="metadata7">
    <rdf:RDF>
      <cc:Work
         rdf:about="">
        <dc:format>image/svg+xml</dc:format>
        <dc:type
           rdf:resource="http://purl.org/dc/dcmitype/StillImage" />
        <dc:title></dc:title>
      </cc:Work>
    </rdf:RDF>
  </metadata>
  <g
     inkscape:groupmode="layer"
     id="layer2"
     inkscape:label="Layer">
    <path
       style="fill:none;stroke:#000000;stroke-width:2;stroke-linecap:butt;stroke-linejoin:miter;stroke-miterlimit:4;stroke-opacity:1;stroke-dasharray:none"
       d="M 489.92398,165.44825 C 391.87988,153.87673 323.26557,131.79456 262.63966,106.8594"
       id="path3910"
       inkscape:connector-curvature="0"
       sodipodi:nodetypes="cc" />
  </g>
  <g
     inkscape:label="Layer 1"
     inkscape:groupmode="layer"
     id="layer1">
    <path
       style="fill:#000000;stroke:#000000;stroke-width:1px;stroke-linecap:butt;stroke-linejoin:miter;stroke-opacity:1;fill-opacity:1"
       d="m 159.67853,232.62651 c 0,0 51.52973,-122.67844 95.05204,-126.20269 9.62519,-0.7794 8.99473,1.47986 17.40771,5.14847 2.1322,0.92977 11.41058,14.54057 19.6963,22.32489 5.70239,5.35731 5.62494,12.995 11.12785,19.67313 15.74703,19.11002 12.18655,38.80983 12.18655,38.80983 z"
       id="path3050"
       inkscape:connector-curvature="0"
       sodipodi:nodetypes="csssscc" />
    <path
       style="fill:#000000;fill-opacity:1;stroke:#000000;stroke-width:1px;stroke-linecap:butt;stroke-linejoin:miter;stroke-opacity:1"
       d="m -17.696892,291.91839 c 0,0 2.937335,-16.86115 46.022473,-21.19399 46.691188,-4.69548 83.047129,-25.61711 83.047129,-25.61711 0,0 26.28243,-4.34265 48.45067,-12.47027 14.17614,-5.19745 74.16047,-30.63487 135.50622,-40.09631 31.26021,-4.8213 56.87421,18.84108 63.64103,18.98899 18.79296,-12.2179 86.28567,-43.03787 123.32759,-40.81273 4.80141,-5.86697 20.60533,-16.51215 20.60533,-16.51215 15.6929,-4.40499 39.02954,1.17981 54.70731,0.3717 13.24118,-0.68251 21.00391,6.77961 35.72638,13.9207 18.79506,9.11648 49.5677,22.66144 68.55283,35.10673 9.19128,6.02514 41.89212,48.29009 49.89615,68.30007 1.94947,4.87366 2.67819,7.23166 5.83942,7.9521 9.57247,2.18155 16.83049,10.84745 17.73586,12.81988 z"
       id="path3054"
       inkscape:connector-curvature="0"
       sodipodi:nodetypes="cscsscccssssscc"
       clip-path="url(#clipPath3941)" />
  </g>
</svg>
